<?xml version="1.0" encoding="utf-8"?>
<!-- Generator: Adobe Illustrator 24.3.0, SVG Export Plug-In . SVG Version: 6.00 Build 0)  -->
<svg version="1.1" id="a259f86b-03f4-47ac-adca-e0b316d45eda"
	 xmlns="http://www.w3.org/2000/svg" xmlns:xlink="http://www.w3.org/1999/xlink" x="0px" y="0px" viewBox="0 0 888 650.6"
	 style="enable-background:new 0 0 888 650.6;" xml:space="preserve">
<style type="text/css">
	.st0{fill:#E6E6E6;}
	.st1{fill:none;}
	.st2{fill:#3F3D56;}
	.st3{fill:#FFFFFF;}
	.st4{fill:#20908D;}
	.st5{fill:#2F2E41;}
	.st6{fill:#FBBEBE;}
	.st7{display:none;}
	.st8{display:inline;fill:#3F3D56;}
	.st9{display:inline;fill:#FFFFFF;}
	.st10{display:inline;fill:#20908D;}
	.st11{display:inline;fill:#E6E6E6;}
	.st12{fill:url(#SVGID_1_);}
	.st13{fill:#1D2366;}
	.st14{fill:#FFB0B1;}
	.st15{opacity:0.1;enable-background:new    ;}
	.st16{fill:#C7DAF5;}
	.st17{opacity:3.000000e-02;enable-background:new    ;}
	.st18{fill:#DCE7FF;}
	.st19{fill:#591D4B;}
	.st20{fill:#BE8B87;}
	.st21{opacity:0.1;fill:#FFFFFF;enable-background:new    ;}
	.st22{fill:#EFC8C4;}
	.st23{fill:#727A9C;}
	.st24{fill:none;stroke:#000000;stroke-miterlimit:10;}
</style>
<g>
	<polygon class="st0" points="299.1,645.1 291.6,645.1 294.1,499.9 296.6,499.9 	"/>
	<path class="st0" d="M304.9,408.4l12-18.5c-3.5-9.8-7.6-19.4-12.3-28.7l-7.7,6.2l6.1-9.5c-5.8-11.5-10.4-18.7-10.4-18.7
		s-24,37.8-32,77.8l15.4,23.7L259,427c-0.6,4.7-0.9,9.4-0.9,14.1c0,47.4,15.5,85.9,34.6,85.9s34.6-38.4,34.6-85.9
		c0-14.7-3.3-30.1-7.9-44.3L304.9,408.4z"/>
</g>
<g>
	<polygon class="st0" points="699.1,645.1 691.7,645.1 694.1,499.9 696.6,499.9 	"/>
	<path class="st0" d="M704.9,408.4l12-18.5c-3.5-9.8-7.6-19.4-12.3-28.7l-7.7,6.2l6.1-9.5c-5.8-11.5-10.4-18.7-10.4-18.7
		s-24,37.8-32,77.8l15.4,23.7L659,427c-0.6,4.7-0.9,9.4-0.9,14.1c0,47.4,15.5,85.9,34.6,85.9s34.6-38.4,34.6-85.9
		c0-14.7-3.3-30.1-7.9-44.3L704.9,408.4z"/>
</g>
<line class="st1" x1="545.6" y1="651.1" x2="548.1" y2="505.9"/>
<path class="st0" d="M558.9,414.4l12-18.5c-3.5-9.8-7.6-19.4-12.3-28.7l-7.7,6.2l6.1-9.5c-5.8-11.5-10.4-18.7-10.4-18.7
	s-24,37.8-32,77.8l15.4,23.7L513,433c-0.6,4.7-0.9,9.4-0.9,14.1c0,47.4,15.5,85.9,34.6,85.9s34.6-38.4,34.6-85.9
	c0-14.7-3.3-30.1-7.9-44.3L558.9,414.4z"/>
<polygon class="st0" points="111,645.1 103.6,645.1 106.1,499.9 108.5,499.9 "/>
<path class="st0" d="M119.7,408.4l12-18.5c-3.5-9.8-7.6-19.4-12.3-28.7l-7.7,6.2l6.1-9.5c-5.8-11.5-10.4-18.7-10.4-18.7
	s-24,37.8-32,77.8l15.4,23.7l-17-13.7c-0.6,4.7-0.9,9.4-0.9,14.1c0,47.4,15.5,85.9,34.6,85.9s34.6-38.4,34.6-85.9
	c0-14.7-3.3-30.1-7.9-44.3L119.7,408.4z"/>
<polygon class="st0" points="813,645.7 805.6,645.7 808,500.5 810.5,500.5 "/>
<path class="st0" d="M821.6,387l12-18.5c-3.5-9.8-7.6-19.4-12.3-28.7l-7.7,6.2l6.1-9.5c-5.8-11.5-10.4-18.7-10.4-18.7
	s-24,37.8-32,77.8l15.4,23.7l-17-13.7c-0.6,4.7-0.9,9.4-0.9,14.1c0,47.4,15.5,85.9,34.6,85.9s34.6-38.4,34.6-85.9
	c0-14.7-3.3-30.1-7.9-44.3L821.6,387z"/>
<polygon class="st0" points="203.3,644.7 188.4,644.7 193.4,346 198.3,346 "/>
<path class="st0" d="M216.2,157.7l24.7-38.1c-7.3-20.2-15.8-40-25.3-59.2l-16,12.9l12.6-19.5c-12-23.7-21.5-38.6-21.5-38.6
	s-49.5,78-66,160.5l31.7,48.9l-35-28.3c-1.2,9.6-1.9,19.3-1.9,29c0,97.8,31.9,177,71.3,177S262,323,262,225.2
	c0-30.3-6.9-62-16.3-91.4L216.2,157.7z"/>
<polygon class="st0" points="743.8,644.7 728.9,644.7 733.9,346 738.8,346 "/>
<path class="st0" d="M756.7,157.7l24.7-38.1c-7.3-20.2-15.8-40-25.3-59.2l-16,12.9l12.6-19.5c-12-23.7-21.5-38.6-21.5-38.6
	s-49.5,78-66,160.5l31.7,48.9l-35-28.3c-1.2,9.6-1.9,19.3-1.9,29c0,97.8,31.9,177,71.3,177c39.4,0,71.3-79.3,71.3-177
	c0-30.3-6.9-62-16.3-91.4L756.7,157.7z"/>
<circle class="st0" cx="131.2" cy="68.5" r="68.5"/>
<rect y="644.2" class="st2" width="888" height="2.2"/>
<path class="st2" d="M631.2,292.4c1.6,0,2.8-1.3,2.8-2.8l0,0v-30.1c0-1.5-1.2-2.8-2.8-2.8c-0.3,0-0.7,0.1-1,0.2v-34
	c0-5.2-4.2-9.4-9.4-9.4l0,0H313.3c-5.2,0-9.4,4.2-9.4,9.4l0,0v412.9c0,5.2,4.2,9.4,9.4,9.4h307.5c5.2,0,9.4-4.2,9.4-9.4V334.6
	c1.4,0.5,3.1-0.2,3.6-1.7c0.1-0.3,0.2-0.7,0.2-1v-30.1c0-1.5-1.2-2.8-2.8-2.8c-0.3,0-0.7,0.1-1,0.2v-6.9
	C630.6,292.4,630.9,292.4,631.2,292.4z"/>
<path class="st3" d="M602.1,231.8c5.2,0,9.4,4.2,9.4,9.4l0,0v376.2c0,5.2-4.2,9.4-9.4,9.4H332.2c-5.2,0-9.4-4.2-9.4-9.4V241.2
	c0-5.2,4.2-9.4,9.4-9.4H602.1"/>
<circle class="st3" cx="467.1" cy="222.8" r="3.8"/>
<rect x="347.6" y="281.1" class="st4" width="231.2" height="23"/>
<rect x="347.6" y="335.2" class="st0" width="231.2" height="8.7"/>
<rect x="347.6" y="361.8" class="st0" width="231.2" height="8.7"/>
<rect x="347.6" y="388.7" class="st0" width="119.4" height="8.7"/>
<rect x="347.6" y="416" class="st0" width="231.2" height="8.7"/>
<rect x="347.6" y="443.4" class="st0" width="231.2" height="8.7"/>
<rect x="347.6" y="470.8" class="st0" width="115.4" height="8.7"/>
<rect x="347.6" y="498.2" class="st0" width="231.2" height="8.7"/>
<rect x="347.6" y="525.5" class="st0" width="231.2" height="8.7"/>
<rect x="506.1" y="576.6" class="st4" width="73" height="24"/>
<path class="st5" d="M226.6,226.8c0,0-12.4-4.4-20.4,13.3s-20.4,37.2-20.4,37.2l7.1,1.8c0,0,1.8-12.4,6.2-14.2l-1.8,15.9
	c0,0,53.2,18.6,77.1-1.8l-0.9-6.2c0,0,3.5,0.9,3.5,6.2l2.7-2.7c0,0-2.7-5.3-10.6-12.4c-5.2-4.7-7-13.5-7.6-19
	c-0.5-4.6-2.3-9-5.3-12.5C250.9,226.3,241.2,219.7,226.6,226.8z"/>
<polygon class="st6" points="153.8,378.8 165.4,393.5 172.8,385.1 166.4,374.5 "/>
<polygon class="st6" points="149.6,605.4 145.4,627.6 155.9,632.8 163.3,627.6 163.3,605.4 "/>
<polygon class="st6" points="223.4,605.4 227.6,627.6 217.1,632.8 209.7,627.6 209.7,605.4 "/>
<polygon class="st5" points="180.2,406.2 165.4,511.6 144.3,607.5 169.6,610.7 189.6,521.1 214.9,445.2 211.8,535.8 206.5,610.7 
	225.5,610.7 239.2,509.5 254.3,434.2 254,406.2 "/>
<path class="st5" d="M152.7,625.5c0,0-5.3-6.3-8.4-3.2s-10.5,15.8-10.5,15.8s-16.9,9.5-3.2,11.6s17.9,0,17.9-1.1s2.1-4.2,2.1-4.2
	l5.3,1.1l7.4-2.1c0,0,3.2-19.4,0-18.7S153.8,628.6,152.7,625.5z"/>
<path class="st5" d="M220.2,625.5c0,0,5.3-6.3,8.4-3.2s10.5,15.8,10.5,15.8s16.9,9.5,3.2,11.6s-17.9,0-17.9-1.1s-2.1-4.2-2.1-4.2
	l-5.3,1.1l-7.4-2.1c0,0-3.2-19.4,0-18.7S219.2,628.6,220.2,625.5z"/>
<circle class="st6" cx="230.2" cy="260.1" r="21.1"/>
<path class="st6" d="M244.5,273.3c0,0-2.1,17.9-1.1,22.1s3.2,10.5,3.2,10.5l-33.7-6.3c0,0,9.5-20,7.4-23.2S244.5,273.3,244.5,273.3z
	"/>
<path class="st4" d="M247.6,298.6l-34.8-7.4l-20,122.3c9-2.5,18.6-2.1,27.4,1.1c14.8,5.3,34.8,0,34.8,0l-4.2-114.9L247.6,298.6z"/>
<path class="st5" d="M219.9,281.6l-12.4,6.5l-15.8,3.2l-16.9,40.1l2.1,28.5c0,0-17.9,32.7-20,50.6c0,0,2.1,27.4,36.9,26.4l23.2-64.3
	c0,0,9.5-48.5,0-62.2C217.1,310.2,223.8,284.5,219.9,281.6z"/>
<path class="st5" d="M198.1,291.2l-3.4-0.6l-2.9,0.6c0,0-7.4,1.1-15.8,8.4s-36.9,30.6-39,36.9s-1.1,16.9,2.1,23.2s9.5,14.8,9.5,14.8
	l3.2,7.4l17.9-5.3c0,0-11.6-22.1-10.5-31.6l21.1-16.9L198.1,291.2z"/>
<path class="st5" d="M243.3,286.3l15.9,19.7l8.4,10.5l-10.5,35.8l-5.3,30.6c0,0,12.7,48.5,2.1,63.3c0,0-6.3,7.4-8.4-1.1
	s-2.1-48.5-2.1-48.5s-8.4-52.7-4.2-66.4S239,288.8,243.3,286.3z"/>
<path class="st6" d="M258.2,438.8v10.5c0,0-2.1,34.8,8.4,30.6s3.2-30.6,3.2-30.6l-1.1-11.6L258.2,438.8z"/>
<path class="st5" d="M206.7,261.3c8-5.8,14.5-12.5,18.8-20.4c0,0,14.7,16.4,23.7,17.2c9,0.8,0.8-19.6,0.8-19.6l-16.4-4.1l-15.5,1.6
	l-12.3,8.2L206.7,261.3z"/>
<polygon class="st5" points="259.2,313.4 267.7,316.5 268.7,327.1 272.9,391.4 270.8,439.9 255,441 249.7,387.2 247.6,328.1 "/>
<g class="st7">
	<path class="st8" d="M267.9,366.1h-1.6v-54.8c0-17.6-14.3-31.8-31.8-31.8l0,0H117.8c-17.6,0-31.8,14.3-31.8,31.8l0,0v302
		c0,17.6,14.3,31.8,31.8,31.8h116.7c17.6,0,31.8-14.3,31.8-31.8V405h1.6V366.1z"/>
	<path class="st9" d="M259.2,309.1v303.4c0,13.1-10.6,23.8-23.8,23.8l0,0H118.5c-13.1,0-23.8-10.6-23.8-23.8V309.1
		c0-11.8,9.6-21.4,21.4-21.4h16.5c-1.3,3.2-1.1,6.7,0.5,9.7c1.9,3.3,5.4,5.5,9.3,5.6h68c3.9-0.2,7.3-2.3,9.3-5.6
		c1.6-3,1.8-6.6,0.5-9.7h17.5C249.6,287.7,259.2,297.3,259.2,309.1z"/>
	<rect x="112.6" y="373.7" class="st10" width="128.2" height="12.7"/>
	<rect x="112.6" y="403.7" class="st11" width="128.2" height="4.8"/>
	<rect x="112.6" y="418.4" class="st11" width="128.2" height="4.8"/>
	<rect x="112.6" y="433.3" class="st11" width="66.2" height="4.8"/>
	<rect x="112.6" y="448.5" class="st11" width="128.2" height="4.8"/>
	<rect x="112.6" y="463.7" class="st11" width="128.2" height="4.8"/>
	<rect x="112.6" y="478.8" class="st11" width="64" height="4.8"/>
	<rect x="112.6" y="494" class="st11" width="128.2" height="4.8"/>
	<rect x="112.6" y="509.2" class="st11" width="128.2" height="4.8"/>
	<rect x="200.5" y="527.8" class="st10" width="40.5" height="13.3"/>
</g>
<g>
	
		<linearGradient id="SVGID_1_" gradientUnits="userSpaceOnUse" x1="767.9401" y1="-435.4019" x2="767.9401" y2="-4.5809" gradientTransform="matrix(1 0 0 -1 -47.24 211.37)">
		<stop  offset="0" style="stop-color:#808080;stop-opacity:0.25"/>
		<stop  offset="0.54" style="stop-color:#808080;stop-opacity:0.12"/>
		<stop  offset="1" style="stop-color:#808080;stop-opacity:0.1"/>
	</linearGradient>
	<path class="st12" d="M802.1,420.6c0,0-12.7-63-7.8-70.8c0,0,0.2-7.3-0.1-16.6c0-0.4,0-0.7,0-1.1c0.9,0.6,1.7,1.1,2.7,1.5
		c4.5,2.3,9.6,3,14.5,1.9l-3.8-4.3c-0.9-1-1.9-2.1-2.1-3.5s0.4-2.6,0.8-3.8c3.6-9.2,3.8-20.8-3.2-27.8c-5.9-5.9-7.4-13.5-13.8-18.9
		c-4.7-3.9-7.3-9.7-9.7-15.3c-2.1-4.7-4.1-9.5-5.3-14.5c-0.9-3.9-1.3-8-2.6-11.8s-3.6-7.5-7.3-9.3c-1.3-0.6-2.8-1-4-1.8
		c-1.6-1.1-2.5-2.8-3.7-4.3c-5.8-7.7-25.2-3.2-34.5,0c-2.5,0.8-4.8,2.1-6.8,3.8l0.1-0.1c0.1-0.1,0.2-0.2,0.2-0.3
		c-1,0.8-1.9,1.8-2.6,2.9c-1.3,2.1-1.9,4.6-3,6.9c-1.3,2.7-8.9,10.3-5.6,13.4c0.2,0.2,0.5,0.4,0.8,0.5c1.2,0.5,2.5,0.6,3.8,0.4
		L709,248c-1.1,2.7-1.7,5.6-1.7,8.5c0,12.6,10.4,22.8,23.2,22.8c2.4,0,4.8-0.4,7.1-1.1c0.1,0.3,0.1,0.6,0.2,0.9c0,0.1,0,0.2,0.1,0.3
		l0,0l-0.4,0.6c0,0,0-0.1-0.1-0.1l-12,16.8c-1.8,1.3-12.4,9-13,14.7c-0.6,6.3-1.3,13.7-1.3,13.7l-0.1,1.6c-1.1,0.9-2.5,1.3-3.8,1
		c-3.8-0.6-3.8,13.8-3.8,13.8s-2.5,2.3-4.2,0.3s-6.3,4.8-6.3,4.8l-28.5,1.2l0,0h-0.7l-1.5-4.7c-0.3-1-1.5-1.6-2.5-1.3
		c-0.1,0-0.2,0.1-0.3,0.1l-0.1,0.1l-0.2,0.1l-0.1,0.1c-0.1,0-0.1,0.1-0.2,0.2l-0.1,0.1l0,0l0,0c-0.4,0.5-0.5,1.1-0.3,1.7l1.3,4.1
		c-5.5,1.1-11.1,4.2-6.5,12.8l-23.2-4.3l7.5,6.3l38.8,8c-0.5,0.9-0.2,2.3,1.4,4.1c6.9,8.1,19.5,10.3,24.5,10.9c1.3,3,3,5.8,5,8.4
		l-0.4,8.1c0,0-12.8,61.6-15.2,64.7c1.2-1.3,2.3-2.8,3.2-4.3c-3.7,12.6-8.9,30-10.3,32.5c-2.2,4.1-4.2,20.9-1.7,22
		c0.8,0.3,3,0.2,6.1-0.1v1.4l-0.1,52.6c0,0,0.6,32.3-1.1,35.3c-1.7,3.1-2.2,9.5-2.2,9.5s-6.9,12.7-12.4,17.8l-0.1,0.1l-0.2-1.2
		c0,0-6.6,8.3-21.1,7.8c0,0-8.8,5.7,4.2,6s29.6-0.5,29.6-0.5s11.6-17.6,21.3-15.3v13.4h3v-13.6c2.8-1.8,4.7-4.7,5.3-8
		c0.5-3.4-0.8-6.8-3.5-9c-1.2-1.1-1.9-2.6-1.9-4.2l-0.1,0.1c0-0.3-0.1-0.5-0.1-0.8c-0.9-6.9-1.9-21.1,1.8-31.7
		c5.2-14.4,6.7-34.6,3-46.6c-1.2-3.8-2.2-7.7-3-11.7c-0.1-0.5-0.2-1-0.3-1.4c2.6,0.3,5.1,0.9,7.6,1.5c8.7,2.4,27.7,2.8,44,2.7
		c0,0.4,0.1,0.9,0.1,1.4c0.3,3.3,0.9,6.5,1.8,9.6c2,6.1,3,33.2,3,33.2s2.6,22.2,1.2,31.3c-0.8,5-1.5,10.1-2,15.2v0.1
		c0,0-4.3,12.3-7.5,18.9c-0.1,0.2-0.2,0.3-0.2,0.5c-0.8,0.1-1.7,0.3-2.5,0.5c0,0-4.2,8.4-8.4,9.8c-4.2,1.4-2.8,6,6.7,4.3
		s23.9-3.1,23.9-3.1l0.6-8.6l2.9-3.7l-0.8,8.6l3.1-0.6l-0.4-10.4l4.8-6c0,0,5.8-5.2-2.8-15.3v0.2c-0.1-0.1-0.2-0.3-0.3-0.4l0,0
		c-1.4-2.2-2.6-6.3-0.5-13.6c3.8-13.2,5.9-25.2,5.9-25.2s8.4-32.1-1.7-47.3h0.4c-1-2.1-1.8-4.4-2.2-6.7c-0.1-0.3-0.1-0.6-0.1-0.9
		c7.5-0.4,14.8-1.8,20.8-4.7C808.7,509,805.1,432.7,802.1,420.6z M707.4,367.5v0.2l-1.5,0.1L707.4,367.5z M702.1,368.2
		c-0.3,0.1-0.5,0.2-0.7,0.3c-0.7,0.9-1.1,2-1.2,3.2l-2.4-0.5c0,0-1.7-0.4-4.1-0.8l-1.1-1.2C695.7,369,699,368.6,702.1,368.2z"/>
	<polygon class="st13" points="781.3,629.1 780.4,639.9 783.4,639.3 783,627.5 	"/>
	<path class="st14" d="M711.5,577.5c-3.7,10.5-2.6,24.7-1.8,31.6c0.3,2.5,0.6,4.1,0.6,4.1s-5.5,12.6-6,13
		c-0.5,0.5-16.2,10.1-16.2,10.1l-11,6.4c0,0-11.2-4.9-5.8-6.6c1.1-0.4,2.1-1.1,2.9-2c5.4-5.1,12.1-17.8,12.1-17.8s0.5-6.4,2.1-9.5
		c1.7-3.1,1.1-35.2,1.1-35.2l0.1-52.4v-6.8l21,0.2c0.1,2.3,0.4,4.6,0.9,6.9c0.8,3.9,1.7,7.8,2.9,11.6
		C718.1,543.1,716.5,563.1,711.5,577.5z"/>
	<path class="st15" d="M710.2,613.1c0,0-5.5,12.6-6,13c-0.5,0.5-16.2,10.1-16.2,10.1l-11,6.4c0,0-11.2-4.9-5.8-6.6
		c1.1-0.4,2.1-1.1,2.9-2l0.5,3.4l3.7-0.2l31.4-28.3C710,611.6,710.2,613.1,710.2,613.1z"/>
	<path class="st13" d="M709.9,609.8l-31.6,28.5l-3.7,0.2l-0.8-5.4c0,0-6.4,8.3-20.7,7.8c0,0-8.6,5.7,4.1,6
		c12.7,0.3,28.9-0.5,28.9-0.5s11.3-17.6,20.8-15.3v13.3h2.9V631c2.7-1.8,4.6-4.7,5.2-8c0.5-3.4-0.8-6.8-3.4-9
		C710.5,612.9,709.9,611.4,709.9,609.8z"/>
	<path class="st14" d="M784.2,593.9c-2,7.3-0.9,11.4,0.5,13.6l0,0c1.8,2.7,3,5.8,3.7,9l0.1,0.7l-14.4,21l-7.8,3.1
		c0,0-12.6-4.3-10.3-5.5c0.6-0.3,1.5-1.9,2.5-4.1c3.1-6.6,7.3-18.9,7.3-18.9v-0.1c0.4-5.1,1.2-10.1,1.9-15.1
		c1.4-9-1.2-31.2-1.2-31.2s-0.9-26.9-2.9-33.1c-0.9-3.1-1.5-6.3-1.8-9.5c-0.4-3.8-0.5-7-0.5-7s8.3-11.5,23.4,0.9
		c1.2,1,2.3,2.1,3.2,3.4c10.5,14.9,2,47.7,2,47.7S787.9,580.7,784.2,593.9z"/>
	<path class="st15" d="M788.5,617.1l-14.4,21l-7.8,3.1c0,0-12.6-4.3-10.3-5.5c0.6-0.3,1.5-1.9,2.5-4.1c5.3,0,8.1,5,8.1,5l6.7-1.1
		c0,0,8.9-17.5,10.9-18.5c2-1.1,0.3-8,0.3-8v-1.8c0.1,0.1,0.1,0.1,0.2,0.2l0,0c1.8,2.7,3,5.8,3.7,9L788.5,617.1z"/>
	<path class="st13" d="M767.1,637c0,0-3.8-7-11.2-4.4c0,0-4.1,8.4-8.3,9.8c-4.1,1.4-2.8,6,6.6,4.3c9.3-1.7,23.4-3.1,23.4-3.1
		l0.6-8.6l9.5-12.1c0,0,5.7-5.1-2.8-15.2v1.8c0,0,1.7,6.9-0.3,8S773.8,636,773.8,636L767.1,637z"/>
	<path class="st15" d="M710.6,512.6c0.1,2.3,0.4,4.6,0.9,6.9c-8.6-1.3-16.7-0.6-21.9-0.2v-6.8L710.6,512.6z"/>
	<path class="st15" d="M788.8,523c0,0-12.3,0.6-26.9,0.7c-0.4-3.8-0.5-7-0.5-7s8.3-11.5,23.4,0.9c1.2,1,2.3,2.1,3.2,3.4
		C788.2,521.7,788.5,522.3,788.8,523z"/>
	<path class="st13" d="M788.8,521.6c0,0-53.7,2.6-70.1-2c-16.4-4.6-32.6-0.6-35.1-1.7s-0.5-17.8,1.7-21.9s13.9-45.9,13.9-45.9
		l11.3-59.1l11.9-3.3l0.8-0.2l20.8-5.7l15.2-4.2c0,0,30.3,118.4,27.7,127.1c-0.9,3.3-1.1,6.9-0.4,10.3
		C787.1,517.2,787.8,519.5,788.8,521.6z"/>
	<path class="st16" d="M671,350.6c0,0-10.7,11.5-2.6,17.9c8.1,6.4,13.5,0.6,13.5,0.6L671,350.6z"/>
	<path class="st15" d="M671,350.6c0,0-10.7,11.5-2.6,17.9c8.1,6.4,13.5,0.6,13.5,0.6L671,350.6z"/>
	<path class="st14" d="M757.8,274.9c0,0-1.3,1.2-3.2,3c-2.7,2.5-6.7,6.2-10.2,9.3c-4.9,4.3-9,7.4-7.5,4.7s1.2-7.3,0.5-11.7
		c-0.1-0.3-0.1-0.6-0.2-0.9c-0.6-3.2-1.4-6.4-2.4-9.5c0,0,7.9-10.2,12.3-14.3c1.6-1.5,2.8-2.2,2.8-1.1c0.1,1.4,1.2,4.6,2.5,8
		c0,0.1,0.1,0.2,0.1,0.3c0.9,2.3,1.9,4.7,2.8,6.7C756.7,272.6,757.8,274.9,757.8,274.9z"/>
	<path class="st15" d="M752.6,262.8c-1.5,8.2-7.4,14.9-15.2,17.5c-0.6-3.5-1.5-7-2.5-10.3c0,0,14.9-19.3,15.2-15.4
		C750,256,751.2,259.2,752.6,262.8z"/>
	<path class="st15" d="M735.9,285.4l1.9-2.7c0,0,1.3,7.8,6,4.4s4.9,25.9,4.9,25.9l-5.1,75.6l-36.5-2.2l1-36.5l4.1-18.4l10.2-26.8
		l6.1-8.8L735.9,285.4z"/>
	<path class="st13" d="M748.7,313.4l-4.6,68.3l-0.5,7.2l-20.4-1.2h-0.8l-15.3-0.9l1-36.5l4.1-18.4l10.2-26.8l6.1-8.8l7.2-10.5
		l1.9-2.7c0,0,1.3,7.8,6,4.4l0.1-0.1l0,0C748.5,284.5,748.7,313.4,748.7,313.4z"/>
	<path class="st3" d="M712.8,325.4c0,0-1.8,3.8-5.5,3.2c-3.7-0.6-3.7,13.8-3.7,13.8s-2.4,2.3-4.1,0.3c-1.7-2-6.1,4.7-6.1,4.7
		l-27.9,1.2c0,0,12.4,5.7,10,22.8c0,0,42.1-2.6,43.5-6.6C720.4,361,712.8,325.4,712.8,325.4z"/>
	<path class="st17" d="M712.8,325.4c0,0-1.8,3.8-5.5,3.2c-3.7-0.6-3.7,13.8-3.7,13.8s-2.4,2.3-4.1,0.3c-1.7-2-6.1,4.7-6.1,4.7
		l-27.9,1.2c0,0,12.4,5.7,10,22.8c0,0,42.1-2.6,43.5-6.6C720.4,361,712.8,325.4,712.8,325.4z"/>
	<polygon class="st3" points="631.8,357.8 639.2,364 699.7,376.7 692.2,369.1 	"/>
	<path class="st3" d="M736,287.8c-1,1.5-3.9,9.4-6.3,16.2c-2,5.7-3.7,10.7-3.7,10.7s-3.9,25.4-5.9,30s-0.9,22.5-0.9,22.5l-7.4,44.2
		c0,0-3.4,22.8-8.6,36.4c-5.1,13.4-10.8,19.7-11,19.9c2.3-3.1,14.8-64.4,14.8-64.4l4.1-77.3c0,0,0.6-7.3,1.2-13.6
		c0.6-6.3,13-14.9,13-14.9l12-17C738.6,282.2,737.8,285,736,287.8z"/>
	<path class="st14" d="M704.7,387.2c0,0-17.6-0.8-26.2-11c-8.5-10.3,19.7-4.1,19.7-4.1l7.4,1.7L704.7,387.2z"/>
	<path class="st15" d="M787.1,504.6c-0.9,3.3-1.1,6.9-0.4,10.3c-19.2,1.4-39.8-3.8-39.8-3.8c-3.8,3.5-13.9,8.7-13.9,8.7l-5.5-68.3
		c-3.5-9.2-4.9-57.4-4.9-57.4s0.3-2.5,0.8-6.3c0-0.1,0-0.2,0-0.3c1.4-10.6,4.1-30.4,5.4-33.1c1.8-3.7-5.7-13.5-5.7-13.5l3.4-29.1
		l0.4-3.5c7.2-3.2,12.7-13.5,12.7-13.5l4.2-7.4l0,0c4.6-3,4.8,26,4.8,26l-4.6,68.3l15.2-4.2C759.3,377.5,789.7,495.9,787.1,504.6z"
		/>
	<path class="st3" d="M806.9,509.3c-21,10.4-59.1,0.8-59.1,0.8c-3.8,3.5-13.9,8.7-13.9,8.7l-5.5-68.3c-3.5-9.2-4.9-57.4-4.9-57.4
		s4.4-36,6.3-39.7c0.5-1.1,0.3-2.7-0.4-4.4c-3.1-8.2-4.3-17-3.4-25.7l1.5-12.5l0.4-3.5c7.2-3.2,12.7-13.5,12.7-13.5l3.8-6.7
		l7.1-12.4l3.3-5.9l0.6,0.5l4.3,3.9c0,0,1.8,1.5,4.6,3.8c6,5.1,16.4,14,21.7,19.4c4.7,4.8,6.2,23.5,6.6,37.5
		c0.3,9.3,0.1,16.5,0.1,16.5c-4.7,7.8,7.7,70.6,7.7,70.6C803.3,433.4,806.9,509.3,806.9,509.3z"/>
	<path class="st17" d="M766.6,293.8c0,0-14.4,27.4-12.7,37.8s6.4,22.2,4.1,25c-1.6,2.1-4.1,3.4-6.7,3.4c-2.3,0.2-8.4,4.4-8.4,4.9
		s-5.7,0.5-10.7,2.6c-5.1,2.1-12.6,3.4-12.6,3.4s-14.6-0.5-15.9,0.9c-1.4,1.4-2.8,9.6,0.2,16.2c2.9,6.6,6.1,11.5,8.6,12.4
		c2.4,0.9,17.9-4.3,30.5-5.5s26.2-11.2,26.2-11.2s15-5.4,17.6-14.4s-3.2-58.6-3.2-58.6S779,287.5,766.6,293.8z"/>
	<path class="st17" d="M764.8,291.5c0,0-14.4,27.4-12.7,37.8s6.4,22.2,4.1,25c-1.6,2.1-4.1,3.4-6.7,3.4c-2.3,0.2-8.4,4.4-8.4,4.9
		s-5.7,0.5-10.7,2.6s-12.6,3.4-12.6,3.4s-14.6-0.5-15.9,0.9c-1.3,1.4-2.8,9.6,0.2,16.2c2.9,6.6,6.1,11.5,8.6,12.4s17.9-4.3,30.5-5.5
		s26.2-11.2,26.2-11.2s15-5.4,17.6-14.4s-3.2-58.6-3.2-58.6S777.2,285.2,764.8,291.5z"/>
	<path class="st3" d="M766.1,292.4c0,0-14.4,27.4-12.7,37.8s6.4,22.2,4.1,25c-1.6,2.1-4.1,3.4-6.7,3.4c-2.3,0.2-8.4,4.4-8.4,4.9
		s-5.7,0.5-10.7,2.6s-12.6,3.4-12.6,3.4s-14.6-0.5-15.9,0.9c-1.4,1.4-2.8,9.6,0.2,16.2s6.1,11.5,8.6,12.4c2.4,0.9,17.9-4.3,30.5-5.5
		s26.2-11.2,26.2-11.2s15-5.4,17.6-14.4s-3.2-58.6-3.2-58.6S778.5,286.1,766.1,292.4z"/>
	<path class="st15" d="M765.8,365.9c0,0-11.5-2.3-7.5,1.5s4,7.2,8.9,7C772.1,374.3,765.8,365.9,765.8,365.9z"/>
	<path class="st15" d="M785.3,448.4c0,0-5.2,3.5,4.7,11.6C800,468.2,785.3,448.4,785.3,448.4z"/>
	<path class="st15" d="M775.3,477.3c0,0.5-1.8,16.9,5,21C787.3,502.4,775.3,477.3,775.3,477.3z"/>
	<path class="st14" d="M666,348.7c-5.6,0.2-17.5,1.9-11.3,13.5c5.5,10.3,14.7,3.4,19.9-1.8C673.3,355.5,670.3,351.4,666,348.7z"/>
	<path class="st14" d="M675.2,359.8L675.2,359.8z"/>
	<path class="st14" d="M674.7,360.3l0.2-0.2L674.7,360.3z"/>
	<path class="st15" d="M764.3,277.7c-5.9,4-10.8,7.4-11.8,8.1c-2.6,2-7.7,13.4-10.9,19.3c-2.6,4.7-11,5.9-14.2,6.2l0.4-3.5
		c7.2-3.2,12.7-13.5,12.7-13.5l14.2-25l4.9,4.5C759.7,273.9,761.5,275.4,764.3,277.7z"/>
	<path class="st18" d="M764.3,277.2c-5.9,4-10.8,7.4-11.8,8.1c-2.6,1.9-7.7,13.4-10.9,19.3c-2.6,4.7-11,5.9-14.2,6.2l0.4-3.5
		c7.2-3.2,12.7-13.5,12.7-13.5l14.2-25l4.9,4.4C759.7,273.4,761.5,274.9,764.3,277.2z"/>
	<path class="st14" d="M753,257.7c0,4.6-1.4,9.1-4,12.9c-7.1,10.4-21.3,13-31.6,5.9c-10.4-7.1-13-21.3-5.9-31.6s21.3-13,31.6-5.9
		C749.3,243.2,753,250.2,753,257.7z"/>
	<path class="st15" d="M792.7,334.2c-3.1-1.9-5.7-4.6-7.3-7.9c-1.3-2.5-2.1-5.5-4.3-7.2c-2-1.6-4.6-2-7.1-2.7
		c-8.1-2.4-14.8-9.7-15.1-18.2c-0.1-4,1.1-7.9,0.6-11.8c-0.3-2.2-1.2-4.3-2.6-6.1c-0.7-0.9-1.4-1.6-2.2-2.4c-1.1-1-2.2-2-3.2-3.1
		c-0.6-0.7-1.2-1.4-1.6-2.2c-0.4-0.6-0.7-1.3-0.9-2c-1.5-4.7-0.1-10.3-1.8-15l-0.1-0.3c-0.6-1.7-1.9-3.4-3.7-3.5s-3.3,1.4-5.1,2
		c-3.6,1.4-7.5-1-10.5-3.4s-6.4-5.2-10.2-4.7c-2.5,0.4-4.5,2.1-6.8,3c-0.5,0.2-1.1,0.4-1.6,0.5c4.7-11.7,17.9-17.3,29.6-12.6
		c8.6,3.5,14.3,11.8,14.3,21.1c0,1.6-0.2,3.2-0.5,4.7c0,0.1,0.1,0.2,0.1,0.3c0.9,2.3,1.9,4.7,2.8,6.7l4.3,3.9c0,0,1.8,1.5,4.6,3.8
		c6,5.1,16.4,14,21.7,19.4C790.7,301.5,792.2,320.1,792.7,334.2z"/>
	<path class="st19" d="M710.5,234.7c1.1-2.2,1.6-4.7,3-6.8c1.9-3.1,5.3-5,8.7-6.2c9-3.1,28.1-7.6,33.7,0c1.1,1.5,2,3.2,3.6,4.3
		c1.2,0.8,2.6,1.2,3.9,1.8c3.6,1.7,5.9,5.4,7.2,9.2c1.2,3.8,1.6,7.9,2.5,11.8c1.2,5,3.2,9.8,5.2,14.5c2.4,5.6,4.9,11.3,9.5,15.3
		c6.3,5.4,7.7,13,13.5,18.9c6.9,7,6.7,18.5,3.1,27.7c-0.5,1.2-1,2.5-0.8,3.7c0.2,1.3,1.1,2.4,2,3.5l3.8,4.3
		c-8.9,2.2-19-2.5-23.2-10.7c-1.3-2.5-2.1-5.4-4.3-7.2c-2-1.6-4.6-2-7-2.7c-8.1-2.4-14.8-9.8-15.1-18.2c-0.1-3.9,1.1-7.9,0.6-11.8
		c-0.3-2.2-1.2-4.3-2.6-6.1c-2.1-2.8-5.3-4.6-7-7.7c-2.9-5.1-0.7-11.8-2.8-17.3c-0.6-1.7-1.9-3.4-3.7-3.5s-3.3,1.4-5.1,2
		c-3.6,1.4-7.5-1-10.5-3.4s-6.4-5.2-10.2-4.6c-2.5,0.4-4.5,2.1-6.8,3c-1.7,0.7-5.2,1.3-6.7-0.2C701.8,245,709.1,237.5,710.5,234.7z"
		/>
	<path class="st15" d="M788.4,323.2c-1.3-2.5-2.1-5.4-4.3-7.2c-2-1.6-4.6-2-7.1-2.7c-8.1-2.4-14.8-9.8-15.1-18.2
		c-0.1-3.9,1.1-7.9,0.6-11.8c-0.3-2.2-1.2-4.3-2.6-6.1c-2.1-2.8-5.3-4.6-7-7.7c-2.9-5.1-0.7-11.8-2.8-17.3c-0.6-1.7-1.9-3.4-3.7-3.5
		s-3.4,1.4-5.1,2c-3.6,1.4-7.5-1-10.5-3.4s-6.4-5.2-10.2-4.7c-2.5,0.4-4.5,2.1-6.8,3c-1.7,0.7-5.2,1.3-6.7-0.2
		c-3.2-3.1,4.2-10.6,5.5-13.3c1.1-2.2,1.6-4.7,3-6.8c0.1-0.1,0.1-0.2,0.2-0.3c-1,0.8-1.8,1.8-2.5,2.9c-1.3,2.1-1.9,4.6-3,6.8
		c-1.3,2.7-8.7,10.3-5.5,13.3c1.5,1.5,5,0.9,6.7,0.2c2.3-0.9,4.3-2.6,6.8-3c3.8-0.5,7.2,2.2,10.2,4.6c3,2.4,6.9,4.8,10.5,3.4
		c1.7-0.7,3.2-2.2,5.1-2s3.1,1.8,3.7,3.5c2.1,5.5-0.1,12.2,2.8,17.3c1.7,3,4.9,4.9,7,7.7c1.4,1.8,2.3,3.9,2.6,6.1
		c0.6,3.9-0.7,7.9-0.6,11.8c0.3,8.4,7,15.8,15.1,18.2c2.4,0.7,5.1,1.1,7,2.7c2.2,1.8,3.1,4.7,4.3,7.2c4.2,8.2,14.3,12.8,23.2,10.7
		l-1.8-2C799.7,334.6,791.9,330.2,788.4,323.2z"/>
	<path class="st15" d="M735.5,288.2c-1,1.5-3.9,9.4-6.3,16.2c-2.2-0.9-4.3-6.4-4.3-6.4l12-17C738.1,282.7,737.3,285.5,735.5,288.2z"
		/>
	<path class="st18" d="M736,287.8c-1,1.5-3.9,9.4-6.3,16.2c-2.2-0.9-4.3-6.4-4.3-6.4l12-17C738.6,282.2,737.8,285,736,287.8z"/>
	<path class="st20" d="M666.3,366.1l-6.6-20.9c-0.3-1,0.2-2.1,1.3-2.5l0,0l0,0c1-0.3,2.1,0.2,2.5,1.3l6.6,20.9l-0.7,4.4L666.3,366.1
		z"/>
	<path class="st21" d="M660.3,343.3L660.3,343.3c1-0.3,2.1,0.2,2.5,1.3l6.6,20.9l-0.5,3.3l0.5,0.5l0.7-4.4l-6.7-20.9
		c-0.3-1-1.4-1.6-2.5-1.3l0,0c-0.4,0.1-0.8,0.4-1,0.8C660,343.5,660.2,343.4,660.3,343.3z"/>
	<polygon class="st22" points="666.3,366.1 670,365 669.5,368.5 669.4,369.3 668.3,368.2 	"/>
	<path class="st23" d="M668.3,368.2c0.1-0.1,0.1-0.1,0.2-0.2c0.1-0.1,0.3-0.1,0.4,0c0.1,0.1,0.1,0.1,0.1,0.2
		c0.1,0.2,0.3,0.3,0.5,0.3l-0.1,0.8L668.3,368.2z"/>
	<path class="st14" d="M659.6,352.6c0,0,13.3-0.1,10.2,5.6s-8,6.4-8,6.4L659.6,352.6z"/>
</g>
<g>
	<g>
		<path class="st24" d="M354.4,599.5c0,0,2.1-15.3,5.1-19.7c0.3-0.4,0.9-0.3,1,0.2c0.5,2.6,1.7,8.9,2,9.5c0.3,0.8,3.1-0.3,10.7-11.3
			c0.1-0.1,0.3-0.2,0.4-0.2c0.8,0,3,1.3,2.2,15.3c0,0,0,0.1,0,0.1c0.1,0.6,1.1,4.8,4.1-2.7c0.2-0.6,1.1-0.4,1.1,0.2v11.4
			c0,0.7-1.1,0.7-1.1,0c-0.1-1,0.1-2.1,0.6-3.2c1.7-3.4,5.5-10.8,5.5-10.8"/>
		<line class="st24" x1="380.3" y1="585.2" x2="380.3" y2="584.5"/>
	</g>
	<g>
		<line class="st24" x1="397.9" y1="596.8" x2="397.9" y2="577.3"/>
		<path class="st24" d="M394.4,579.8l-2.8-0.7c0,0,35.5-7,5.6,8c0,0,39.6-6.5,6.9,11.2c0,0-9.9,0.7,20.5-11.2c0,0-1.2-11.9,1.5-16.4
			"/>
		<path class="st24" d="M424.4,587c0,0,3.2,1.5,5.6,1.7c2.3,0.1,5.3-2.9,5.3-2.9s-4.2-2.3-4.7,1.5c-0.4,3.8,4.7,1,4.7-0.2
			c0-1.2,0-2.2,0-2.2s-1.6,1.6,1.2,2.2c2.8,0.7,3.2-0.5,3.1-16.4l0,21.9"/>
		<path class="st24" d="M438.9,587c0,0,4,0.3,3.3-2.6C441.5,581.4,438.9,587,438.9,587z"/>
		<path class="st24" d="M438,587c0,0,5.6,0.9,7.6,0.8s3-3,3-3s-3.9-0.1-3,2.2c1,2.3,5.4,0.8,5.4,0.8"/>
	</g>
</g>
</svg>
