<?xml version="1.0" encoding="utf-8"?>
<!-- Generator: Adobe Illustrator 24.3.0, SVG Export Plug-In . SVG Version: 6.00 Build 0)  -->
<svg version="1.1" id="a33e59cf-d648-43ac-a922-97b4db9e4e4a"
	 xmlns="http://www.w3.org/2000/svg" xmlns:xlink="http://www.w3.org/1999/xlink" x="0px" y="0px" viewBox="0 0 806.3 712.7"
	 style="enable-background:new 0 0 806.3 712.7;" xml:space="preserve">
<style type="text/css">
	.st0{display:none;}
	.st1{display:inline;fill:#E6E6E6;}
	.st2{display:inline;fill:#A0616A;}
	.st3{display:inline;fill:#575A89;}
	.st4{display:inline;fill:#2F2E41;}
	.st5{display:inline;fill:#20908D;}
	.st6{display:inline;opacity:0.2;enable-background:new    ;}
	.st7{fill:#3F3D56;}
	.st8{fill:#E6E6E6;}
	.st9{fill:#FFFFFF;}
	.st10{fill:#20908D;}
	.st11{fill:#FFB8B8;}
	.st12{fill:#575A89;}
	.st13{opacity:0.2;enable-background:new    ;}
	.st14{fill:#2F2E41;}
	.st15{fill:#FFB9B9;}
</style>
<g class="st0">
	<ellipse class="st1" cx="79.4" cy="696.1" rx="79.4" ry="16.6"/>
	<path class="st2" d="M145.3,449.5l3.1,6.4c0,0,17.6,23.5,6.7,27.2s-16.7-22.3-16.7-22.3l-2.9-3.6L145.3,449.5z"/>
	<path class="st3" d="M125,328l2.9-1.2c0,0,3.4,1.2,3.4,6.5s-4.2,82.2-4.2,82.2l8.4,42.2l-11.6,2.1l-17.9-39L125,328z"/>
	<path class="st3" d="M125,328l2.9-1.2c0,0,3.4,1.2,3.4,6.5s-4.2,82.2-4.2,82.2l22.7,36.4l-14.8,10.5l-29-41.6L125,328z"/>
	<path class="st4" d="M122.9,450.3c0,0,13.7,5.3,12.7,14.8s-14.8,198.2-14.8,198.2l4.2,21.1L85,685.4l-1.1-136l-28.5,136H15.4
		l28.5-239.3L122.9,450.3z"/>
	<path class="st4" d="M119.8,680.1l9.5,9.5c0,0,22.1,4.2,16.9,11.6S86,699.1,86,699.1l1.1-16.9L119.8,680.1z"/>
	<path class="st4" d="M51.2,680.1l9.5,9.5c0,0,22.1,4.2,16.9,11.6s-60.1-2.1-60.1-2.1l1.1-16.9L51.2,680.1z"/>
	<circle class="st2" cx="89.2" cy="264.7" r="25.3"/>
	<polygon class="st2" points="105,279.5 102.9,322.7 70.2,303.7 74.4,279.5 	"/>
	<polygon class="st5" points="69.2,293.2 99.7,315.3 105,299.5 114.5,324.8 109.2,370.2 	"/>
	<path class="st3" d="M72.4,290.1l30.5,46.4l1.2-38.8l3.8,3c4.2,3.3,6.6,8.3,6.6,13.7l0,0l14.8,13.7l-5.3,52.7l-1.1,62.2
		c0,0,6.3,5.3,4.2,8.4s-10.5,10.5-20,10.5s-68.5-7.4-68.5-11.6s2.1-59,2.1-59v-73.8l25.3-19L72.4,290.1z"/>
	<polygon class="st2" points="36.5,465.1 50.2,485.1 55.5,461.9 49.1,457.7 	"/>
	
		<rect x="64.6" y="522" transform="matrix(0.3463 -0.9381 0.9381 0.3463 -429.3841 429.9378)" class="st6" width="58.5" height="2.1"/>
	<path class="st4" d="M73.9,239.9c0,0,3.2-15.8,21.1-12.7l-2.1,1.1c0,0,16.9-2.1,14.8,7.4c0,0,13.7,8.4,10.5,17.9
		c-1.9,5.5-3.3,11.1-4.2,16.9l-3.2-3.2c0,0-3.2-21.1-22.1-19c-14.2,1.6-20,8.3-21.5,13.1c-0.7,2.3-1.6,4.5-2.6,6.6l-1.2,0.3
		C63.4,268.4,57,245.2,73.9,239.9z"/>
	<path class="st3" d="M52.3,316.4l-9.6-0.4l-2,1.5c-2.3,2.3-4.4,4.8-6.3,7.4C32.3,328,4.8,405,4.8,405c-0.5,4.7,0.2,9.4,2.1,13.7
		c3.2,7.4,28.5,51.7,28.5,51.7l19-11.6l-25.3-51.7L47,381.8L52.3,316.4z"/>
</g>
<path class="st7" d="M613.4,161.5h-3.7V59.2c0-32.7-26.5-59.2-59.2-59.2c0,0,0,0,0,0H333.8c-32.7,0-59.2,26.5-59.2,59.2c0,0,0,0,0,0
	v561.1c0,32.7,26.5,59.2,59.2,59.2c0,0,0,0,0,0h216.7c32.7,0,59.2-26.5,59.2-59.2c0,0,0,0,0,0v-386h3.7V161.5z"/>
<path class="st8" d="M597.6,55.2v569c0,24.8-20.1,44.9-44.9,44.9H331.6c-24.8,0-44.9-20.1-44.9-44.9v-569
	c0-24.8,20.1-44.9,44.9-44.9h26.8c-4.4,10.9,0.8,23.4,11.7,27.8c2.5,1,5.3,1.6,8,1.6h126.1c11.8,0,21.3-9.6,21.3-21.4
	c0-2.7-0.5-5.5-1.6-8h28.7C577.5,10.3,597.6,30.4,597.6,55.2z"/>
<rect x="330.6" y="351.6" class="st9" width="223.1" height="223.1"/>
<rect x="379.8" y="251" class="st9" width="125.8" height="9.5"/>
<rect x="363" y="275.6" class="st9" width="158.4" height="9.5"/>
<rect x="394.9" y="373.1" class="st8" width="86.8" height="6.5"/>
<rect x="394.9" y="392.3" class="st10" width="134.1" height="6.5"/>
<rect x="396.3" y="410.5" class="st8" width="109.3" height="6.5"/>
<rect x="394.9" y="430.5" class="st8" width="63.8" height="6.5"/>
<rect x="394.9" y="450.1" class="st10" width="96.3" height="6.5"/>
<rect x="355.3" y="371" class="st8" width="10.6" height="10.6"/>
<rect x="355.3" y="390.2" class="st10" width="10.6" height="10.6"/>
<rect x="355.3" y="408.5" class="st8" width="10.6" height="10.6"/>
<rect x="355.3" y="428.5" class="st8" width="10.6" height="10.6"/>
<rect x="355.3" y="448" class="st10" width="10.6" height="10.6"/>
<rect x="394.9" y="469.8" class="st8" width="86.8" height="6.5"/>
<rect x="394.9" y="488.9" class="st10" width="134.1" height="6.5"/>
<rect x="396.3" y="507.2" class="st8" width="109.3" height="6.5"/>
<rect x="394.9" y="527.2" class="st8" width="63.8" height="6.5"/>
<rect x="394.9" y="546.8" class="st8" width="96.3" height="6.5"/>
<rect x="355.3" y="467.7" class="st8" width="10.6" height="10.6"/>
<rect x="355.3" y="486.9" class="st10" width="10.6" height="10.6"/>
<rect x="355.3" y="505.1" class="st8" width="10.6" height="10.6"/>
<rect x="355.3" y="525.2" class="st8" width="10.6" height="10.6"/>
<rect x="355.3" y="544.7" class="st8" width="10.6" height="10.6"/>
<circle class="st9" cx="442.1" cy="149.8" r="72.7"/>
<path class="st10" d="M441.5,114.1c-19.8,0-35.9,16.1-35.9,35.9c0,19.8,16.1,35.9,35.9,35.9c19.8,0,35.9-16.1,35.9-35.9
	C477.3,130.2,461.3,114.2,441.5,114.1z M441.5,124.9c5.9,0,10.8,4.8,10.8,10.8c0,5.9-4.8,10.8-10.8,10.8c-5.9,0-10.8-4.8-10.8-10.8
	c0,0,0,0,0,0C430.8,129.7,435.6,124.9,441.5,124.9L441.5,124.9z M441.5,176.7c-8.6,0-16.7-4.3-21.5-11.5
	c0.2-7.2,14.3-11.1,21.5-11.1s21.3,3.9,21.5,11.1C458.2,172.3,450.2,176.6,441.5,176.7z"/>
<ellipse class="st8" cx="725.3" cy="687.1" rx="80.9" ry="16.6"/>
<ellipse class="st8" cx="123.5" cy="686.3" rx="80.9" ry="16.6"/>
<path class="st11" d="M639.5,441.1l-10.6-1.8c0,0-21.7-10-23-2.4c-1.3,7.6,19.4,14.3,19.4,14.3l22.3-2.4L639.5,441.1z"/>
<polygon class="st12" points="701.4,364.2 686.5,432 636.8,439 634.9,459 699,459.2 731,400.6 "/>
<polygon class="st13" points="701.4,364.2 686.5,432 636.8,439 634.9,459 699,459.2 731,400.6 "/>
<path class="st11" d="M625.7,383.9l-7.6-7.7c0,0-11.9-20.8-17.4-15.4c-5.5,5.4,7.5,22.9,7.5,22.9l19.6,11L625.7,383.9z"/>
<path class="st14" d="M730.2,342.8l9.3-2.3c13.3,0,24.1-10.7,24.1-24c0-1.6-0.2-3.2-0.5-4.8l0,0c0-17.4-14-31.4-31.4-31.5l0,0h0
	c-17.4,0-31.4,14-31.5,31.4l0,0c-3.8,13.3,3.8,27.1,17.1,30.9C721.6,343.7,726,343.8,730.2,342.8z"/>
<polygon class="st14" points="675.3,498.4 682.9,581.6 696.7,663.3 719.8,663.4 716.8,583.2 704.6,486.1 "/>
<path class="st14" d="M699.7,658.7l-15.4,9.2c0,0-24.7,3.1-20.1,10.8s58.6,3.2,58.6,0.1c0-3.1-1.5-20-4.6-20L699.7,658.7z"/>
<path class="st14" d="M743.5,491.2c0,0-0.4,11.9-11.2,30.4l1.5,57l55.4,71l-20.1,16.9l-67.7-77.2l-16.8-92.5l21.6-21.6L743.5,491.2z
	"/>
<path class="st14" d="M784.5,649.6c0,0,18.5,3.1,15.4,10.8c-3.1,7.7-10.8,43.1-30.9,38.5c0,0-9.2,0-6.2-6.2
	c1.9-3.7,3.9-7.3,6.2-10.8l0-20L784.5,649.6z"/>
<circle class="st11" cx="720.2" cy="321.2" r="23.1"/>
<polygon class="st11" points="731,336.6 730.9,362.8 706.3,362.8 709.4,336.6 "/>
<path class="st12" d="M746.2,501.6l-15.3-2.6c-19.5-3.3-39.5-2.4-58.7,2.5l6.9-68.9l0.9-9l1.9-19.2c0,0-6.7-25.3,3.1-33.9
	c11.9-10.5,22.5-18.8,22.5-18.8l23.4,1.9c13.1,26,10.2,58.8,1.4,94L746.2,501.6z"/>
<path class="st12" d="M720.7,357.2l-51.5,46.6l-44.6-23.1l-9.4,11.4l39.4,34.7c5.5,3.9,12.7,4.6,18.8,1.6l50.2-24.3L720.7,357.2z"/>
<circle class="st14" cx="764.8" cy="289.2" r="14.9"/>
<path class="st14" d="M751.1,281.2c0-8.2,6.7-14.9,14.9-14.9c1,0,2,0.1,2.9,0.3c-7.4-3.5-16.3-0.3-19.9,7.1
	c-3.5,7.4-0.3,16.3,7.1,19.9c1.1,0.5,2.3,0.9,3.4,1.1C754.4,292.3,751.1,287,751.1,281.2z"/>
<path class="st14" d="M738.3,289.7l-20.1-3.7l-15.5,9.7c-7.8,4.9-12,13.8-10.8,22.9l15.5-3.9l3.5-8.7l0,0c2.2,3.6,5.3,6.7,9,8.8
	c8.8,5,10.8,15.7,11.8,27.3l17-9.2l10.8-16.9L738.3,289.7z"/>
<polygon class="st13" points="719.3,390 679.1,432.6 680,423.6 "/>
<g>
	<path class="st14" d="M148.3,309l-50.5,0.5c-2.4-11.7-10.3-42.3-3.2-50.7c0.7-6.5,6.4-11.4,12.9-11l0,0
		c7.8-12.2,20.9-10.4,29.7-2.8c8.9,3.1,12.2,8.5,11,15.9c6.6,5.7,7.8,12.7,4.8,20.7L148.3,309z"/>
	<path class="st15" d="M143.4,340.1l-36.4-5l-7.3-10.6c10-6.7,13.6-16,9-28.6l25.2-0.6c-1.2,11.2,2.5,19.9,12.9,25.2L143.4,340.1z"
		/>
	<path class="st7" d="M98.4,668.7l-1.4,19c-0.2,3.3,2.3,6.2,5.6,6.5c0.3,0,0.5,0,0.8,0l9.8-0.6c1.7-0.1,3-1.6,2.9-3.3
		c0-0.2,0-0.4-0.1-0.6l-5.4-21.7L98.4,668.7z"/>
	<path class="st7" d="M130,668l-5.4,21.7c-0.4,1.7,0.6,3.3,2.2,3.7c0.2,0,0.4,0.1,0.6,0.1l9.8,0.6c3.3,0.2,6.2-2.3,6.4-5.7
		c0-0.3,0-0.5,0-0.8l-1.4-19L130,668z"/>
	<polygon class="st10" points="142.8,671.3 129.6,670 116.5,529.5 111.5,669.5 98.6,669.1 76.7,475.2 160.2,475.2 	"/>
	<circle class="st15" cx="122.7" cy="279.6" r="25.2"/>
	<path class="st10" d="M172.5,479.6l-102,1.1c15.1-57.6,24.2-111.1,8.4-147.9l25.2-12.3c12.2,12.7,25.7,11.4,40.3-1.1l24.1,6.2
		C164.5,373.8,166.3,425.5,172.5,479.6z"/>
	<path class="st15" d="M42.5,420.2l63.3,25.2l14.2,4.2c2.6,0.8,5.3-0.7,6.1-3.3c0-0.1,0-0.1,0.1-0.2l0,0c0.6-2.3-0.6-4.7-2.8-5.7
		l-14.7-4.5l-44.3-25.8l9.2-24.4l-19.3-10.4L42.5,420.2z"/>
	<path class="st10" d="M43.1,374.3c12,4.7,21.6,12.7,29.1,23.5l23.5-34.2L79,332.8L43.1,374.3z"/>
	<path class="st14" d="M151.1,275.5c-10.2-2.6-20.3-3-30.1,0.3c-6.2,3-13.7,2.7-22,0.3v-25.2l44.9,1.2L151.1,275.5z"/>
	<path class="st7" d="M105.6,390.9c-4.1,0-7.5,3.3-7.5,7.5l2.9,61.7c0,4.1,3.3,7.5,7.5,7.5h33.7c4.1,0,7.5-3.3,7.5-7.5l2.9-61.7
		c0-4.1-3.3-7.5-7.5-7.5H105.6z"/>
	<path class="st15" d="M201.3,415.6l-55.2,22l-4.2,1.7c-0.1,0.1-0.3,0.1-0.4,0.1l-14,4.1c-1.8,0.5-4.3-1.9-5.7-3.5
		c-1.5-1.7-1.5-4.1-0.1-5.8c0.2-0.2,0.4-0.4,0.6-0.6c0.5-0.4,1.2-0.7,1.8-0.8l13.9-2.7c0.5-0.1,1-0.3,1.4-0.5l6.5-3.8l33.7-19.6
		c1.9-1.1,2.8-3.5,2-5.6l-6.4-17c-0.8-2.2,0.1-4.6,2.1-5.7l10.7-5.7c2.2-1.2,5-0.4,6.2,1.9c0.2,0.3,0.3,0.7,0.4,1l9.3,35.3
		C204.6,412.4,203.4,414.7,201.3,415.6z"/>
	<path class="st10" d="M204.5,368.1c-12,4.7-21.6,12.7-29.1,23.5l-23.5-34.2l16.8-31.9L204.5,368.1z"/>
	<path class="st9" d="M139.5,302c-11,4.6-22.6,4.4-34.6,0c3.5-6-1.7-10.7-4.4-16.7l45-1.3C141.9,289.2,136.8,295.4,139.5,302z"/>
	<polygon class="st9" points="144.9,285 144.3,284.5 145.1,283.7 149.5,278.6 150,279.1 145.6,284.2 	"/>
	
		<rect x="98.9" y="281.1" transform="matrix(0.6402 -0.7682 0.7682 0.6402 -182.4414 178.4543)" class="st9" width="0.7" height="5.8"/>
	
		<rect x="135.4" y="295.2" transform="matrix(0.537 -0.8436 0.8436 0.537 -183.3439 257.14)" class="st9" width="14.4" height="0.7"/>
	
		<rect x="101.3" y="288.4" transform="matrix(0.8437 -0.5369 0.5369 0.8437 -142.8017 100.8015)" class="st9" width="0.7" height="14.4"/>
	<path class="st9" d="M147.6,424.5v13.4l-4.6,1.9c-0.1,0.1-0.3,0.1-0.5,0.2l-15.6,4.6c-2,0.6-4.7-2.1-6.4-3.9
		c-1.6-1.8-1.7-4.6-0.1-6.5c0.2-0.2,0.5-0.5,0.7-0.7c0.6-0.5,1.3-0.8,2.1-0.9l15.6-3.1c0.6-0.1,1.1-0.3,1.6-0.6L147.6,424.5z"/>
	<path class="st7" d="M154.3,376.9h-2.7c0-37.7-7.8-63.9-15.3-63.9l-0.7-2.7c6.8,0,11.1,10.9,13.5,20.1
		C152.5,342.9,154.3,359.4,154.3,376.9z"/>
	<path class="st7" d="M93,367.6h-2.7c0-34.5,7.8-55.9,19.3-55.9l-0.7,2.7C101.1,314.3,93,330.8,93,367.6z"/>
	<circle class="st7" cx="153" cy="377.6" r="6.7"/>
	<path class="st7" d="M82.4,383.6h-2.7c0-9.5,5.4-17.3,12-17.3v2.7C86.6,368.9,82.4,375.5,82.4,383.6z"/>
	<path class="st7" d="M103.7,383.6H101c0-8.1-4.2-14.6-9.3-14.6v-2.7C98.3,366.3,103.7,374,103.7,383.6z"/>
	<circle class="st7" cx="102.4" cy="384.2" r="2.7"/>
	<circle class="st7" cx="81.1" cy="384.2" r="2.7"/>
</g>
</svg>
